<svg width="1200" height="256" viewBox="0 0 1200 256" fill="none" xmlns="http://www.w3.org/2000/svg">
<g clip-path="url(#clip0_14_410)">
<rect width="1200" height="256" rx="24" fill="url(#paint0_linear_14_410)"/>
<path d="M496.417 101.833H484.167V69.1667C484.167 64.8348 482.446 60.6803 479.383 57.6172C476.32 54.5542 472.165 52.8333 467.833 52.8333H435.167V40.5833C435.167 35.1685 433.016 29.9754 429.187 26.1466C425.358 22.3177 420.165 20.1667 414.75 20.1667C409.335 20.1667 404.142 22.3177 400.313 26.1466C396.484 29.9754 394.333 35.1685 394.333 40.5833V52.8333H361.667C357.335 52.8333 353.18 54.5542 350.117 57.6172C347.054 60.6803 345.333 64.8348 345.333 69.1667V100.2H357.583C369.833 100.2 379.633 110 379.633 122.25C379.633 134.5 369.833 144.3 357.583 144.3H345.333V175.333C345.333 179.665 347.054 183.82 350.117 186.883C353.18 189.946 357.335 191.667 361.667 191.667H392.7V179.417C392.7 167.167 402.5 157.367 414.75 157.367C427 157.367 436.8 167.167 436.8 179.417V191.667H467.833C472.165 191.667 476.32 189.946 479.383 186.883C482.446 183.82 484.167 179.665 484.167 175.333V142.667H496.417C501.831 142.667 507.025 140.516 510.853 136.687C514.682 132.858 516.833 127.665 516.833 122.25C516.833 116.835 514.682 111.642 510.853 107.813C507.025 103.984 501.831 101.833 496.417 101.833Z" fill="#ABE2F7"/>
<path d="M959.271 4.70836H973.958V-34.4583C973.958 -39.6521 976.022 -44.6332 979.694 -48.3058C983.367 -51.9784 988.348 -54.0416 993.542 -54.0416H1032.71V-68.7291C1032.71 -75.2214 1035.29 -81.4478 1039.88 -86.0385C1044.47 -90.6293 1050.7 -93.2083 1057.19 -93.2083C1063.68 -93.2083 1069.91 -90.6293 1074.5 -86.0385C1079.09 -81.4478 1081.67 -75.2214 1081.67 -68.7291V-54.0416H1120.83C1126.03 -54.0416 1131.01 -51.9784 1134.68 -48.3058C1138.35 -44.6332 1140.42 -39.6521 1140.42 -34.4583V2.75002H1125.73C1111.04 2.75002 1099.29 14.5 1099.29 29.1875C1099.29 43.875 1111.04 55.625 1125.73 55.625H1140.42V92.8334C1140.42 98.0272 1138.35 103.008 1134.68 106.681C1131.01 110.353 1126.03 112.417 1120.83 112.417H1083.63V97.7292C1083.63 83.0417 1071.88 71.2917 1057.19 71.2917C1042.5 71.2917 1030.75 83.0417 1030.75 97.7292V112.417H993.542C988.348 112.417 983.367 110.353 979.694 106.681C976.022 103.008 973.958 98.0272 973.958 92.8334V53.6667H959.271C952.779 53.6667 946.552 51.0876 941.961 46.4969C937.371 41.9062 934.792 35.6798 934.792 29.1875C934.792 22.6952 937.371 16.4689 941.961 11.8781C946.552 7.28741 952.779 4.70836 959.271 4.70836Z" fill="#99DDF7"/>
<path d="M1137.62 48.75H1147V73.75C1147 77.0652 1148.32 80.2446 1150.66 82.5888C1153.01 84.933 1156.18 86.25 1159.5 86.25H1184.5V95.625C1184.5 99.769 1186.15 103.743 1189.08 106.674C1192.01 109.604 1195.98 111.25 1200.12 111.25C1204.27 111.25 1208.24 109.604 1211.17 106.674C1214.1 103.743 1215.75 99.769 1215.75 95.625V86.25H1240.75C1244.07 86.25 1247.24 84.933 1249.59 82.5888C1251.93 80.2446 1253.25 77.0652 1253.25 73.75V50H1243.88C1234.5 50 1227 42.5 1227 33.125C1227 23.75 1234.5 16.25 1243.88 16.25H1253.25V-7.5C1253.25 -10.8152 1251.93 -13.9946 1249.59 -16.3388C1247.24 -18.683 1244.07 -20 1240.75 -20H1217V-10.625C1217 -1.25 1209.5 6.25001 1200.12 6.25001C1190.75 6.25001 1183.25 -1.25 1183.25 -10.625V-20H1159.5C1156.18 -20 1153.01 -18.683 1150.66 -16.3388C1148.32 -13.9946 1147 -10.8152 1147 -7.5V17.5H1137.62C1133.48 17.5 1129.51 19.1462 1126.58 22.0765C1123.65 25.0067 1122 28.981 1122 33.125C1122 37.269 1123.65 41.2433 1126.58 44.1735C1129.51 47.1038 1133.48 48.75 1137.62 48.75Z" fill="#B8EBFE"/>
<path d="M181.833 168.667H166.333V127.333C166.333 121.852 164.156 116.596 160.28 112.72C156.404 108.844 151.148 106.667 145.667 106.667H104.333V91.1667C104.333 84.3153 101.612 77.7444 96.7669 72.8998C91.9222 68.0551 85.3514 65.3333 78.5 65.3333C71.6486 65.3333 65.0778 68.0551 60.2331 72.8998C55.3884 77.7444 52.6667 84.3153 52.6667 91.1667V106.667H11.3334C5.85221 106.667 0.595564 108.844 -3.28019 112.72C-7.15594 116.596 -9.33331 121.852 -9.33331 127.333V166.6H6.16669C21.6667 166.6 34.0667 179 34.0667 194.5C34.0667 210 21.6667 222.4 6.16669 222.4H-9.33331V261.667C-9.33331 267.148 -7.15594 272.404 -3.28019 276.28C0.595564 280.156 5.85221 282.333 11.3334 282.333H50.6V266.833C50.6 251.333 63 238.933 78.5 238.933C94 238.933 106.4 251.333 106.4 266.833V282.333H145.667C151.148 282.333 156.404 280.156 160.28 276.28C164.156 272.404 166.333 267.148 166.333 261.667V220.333H181.833C188.685 220.333 195.256 217.612 200.1 212.767C204.945 207.922 207.667 201.351 207.667 194.5C207.667 187.649 204.945 181.078 200.1 176.233C195.256 171.388 188.685 168.667 181.833 168.667Z" fill="#97D8F0"/>
<path d="M159.396 30.9583H146.708V64.7917C146.708 69.2782 144.926 73.5811 141.754 76.7535C138.581 79.926 134.278 81.7083 129.792 81.7083H95.9584V94.3958C95.9584 100.004 93.7305 105.383 89.7649 109.348C85.7993 113.314 80.4207 115.542 74.8125 115.542C69.2043 115.542 63.8258 113.314 59.8602 109.348C55.8945 105.383 53.6667 100.004 53.6667 94.3958V81.7083H19.8334C15.3468 81.7083 11.044 79.926 7.87146 76.7535C4.69897 73.5811 2.91669 69.2782 2.91669 64.7917V32.65H15.6042C28.2917 32.65 38.4417 22.5 38.4417 9.81249C38.4417 -2.87501 28.2917 -13.025 15.6042 -13.025H2.91669V-45.1667C2.91669 -49.6532 4.69897 -53.9561 7.87146 -57.1286C11.044 -60.301 15.3468 -62.0833 19.8334 -62.0833H51.975V-49.3958C51.975 -36.7083 62.125 -26.5583 74.8125 -26.5583C87.5 -26.5583 97.65 -36.7083 97.65 -49.3958V-62.0833H129.792C134.278 -62.0833 138.581 -60.301 141.754 -57.1286C144.926 -53.9561 146.708 -49.6532 146.708 -45.1667V-11.3333H159.396C165.004 -11.3333 170.383 -9.10548 174.348 -5.13987C178.314 -1.17426 180.542 4.20427 180.542 9.81249C180.542 15.4207 178.314 20.7992 174.348 24.7649C170.383 28.7305 165.004 30.9583 159.396 30.9583Z" fill="#86CDE7"/>
<path d="M457.146 21.4583H469.208V-10.7083C469.208 -14.9739 470.903 -19.0648 473.919 -22.081C476.935 -25.0972 481.026 -26.7917 485.292 -26.7917H517.458V-38.8542C517.458 -44.1861 519.576 -49.2997 523.347 -53.07C527.117 -56.8402 532.231 -58.9583 537.562 -58.9583C542.894 -58.9583 548.008 -56.8402 551.778 -53.07C555.549 -49.2997 557.667 -44.1861 557.667 -38.8542V-26.7917H589.833C594.099 -26.7917 598.19 -25.0972 601.206 -22.081C604.222 -19.0648 605.917 -14.9739 605.917 -10.7083V19.85H593.854C581.792 19.85 572.142 29.5 572.142 41.5625C572.142 53.625 581.792 63.275 593.854 63.275H605.917V93.8333C605.917 98.0989 604.222 102.19 601.206 105.206C598.19 108.222 594.099 109.917 589.833 109.917H559.275V97.8542C559.275 85.7917 549.625 76.1417 537.562 76.1417C525.5 76.1417 515.85 85.7917 515.85 97.8542V109.917H485.292C481.026 109.917 476.935 108.222 473.919 105.206C470.903 102.19 469.208 98.0989 469.208 93.8333V61.6667H457.146C451.814 61.6667 446.7 59.5486 442.93 55.7783C439.16 52.008 437.042 46.8944 437.042 41.5625C437.042 36.2305 439.16 31.117 442.93 27.3467C446.7 23.5764 451.814 21.4583 457.146 21.4583Z" fill="#B1E8FC"/>
<path d="M926.854 304.542H914.792V336.708C914.792 340.974 913.097 345.065 910.081 348.081C907.065 351.097 902.974 352.792 898.708 352.792H866.542V364.854C866.542 370.186 864.424 375.3 860.653 379.07C856.883 382.84 851.769 384.958 846.438 384.958C841.106 384.958 835.992 382.84 832.222 379.07C828.451 375.3 826.333 370.186 826.333 364.854V352.792H794.167C789.901 352.792 785.81 351.097 782.794 348.081C779.778 345.065 778.083 340.974 778.083 336.708V306.15H790.146C802.208 306.15 811.858 296.5 811.858 284.437C811.858 272.375 802.208 262.725 790.146 262.725H778.083V232.167C778.083 227.901 779.778 223.81 782.794 220.794C785.81 217.778 789.901 216.083 794.167 216.083H824.725V228.146C824.725 240.208 834.375 249.858 846.438 249.858C858.5 249.858 868.15 240.208 868.15 228.146V216.083H898.708C902.974 216.083 907.065 217.778 910.081 220.794C913.097 223.81 914.792 227.901 914.792 232.167V264.333H926.854C932.186 264.333 937.3 266.451 941.07 270.222C944.84 273.992 946.958 279.106 946.958 284.437C946.958 289.769 944.84 294.883 941.07 298.653C937.3 302.424 932.186 304.542 926.854 304.542Z" fill="#8EDAF5"/>
<path d="M745.854 302.458H727.792V254.292C727.792 247.904 725.254 241.779 720.738 237.262C716.221 232.746 710.096 230.208 703.708 230.208H655.542V212.146C655.542 204.162 652.37 196.505 646.724 190.859C641.079 185.213 633.422 182.042 625.438 182.042C617.453 182.042 609.796 185.213 604.151 190.859C598.505 196.505 595.333 204.162 595.333 212.146V230.208H547.167C540.779 230.208 534.654 232.746 530.137 237.262C525.621 241.779 523.083 247.904 523.083 254.292V300.05H541.146C559.208 300.05 573.658 314.5 573.658 332.563C573.658 350.625 559.208 365.075 541.146 365.075H523.083V410.833C523.083 417.221 525.621 423.346 530.137 427.863C534.654 432.379 540.779 434.917 547.167 434.917H592.925V416.854C592.925 398.792 607.375 384.342 625.438 384.342C643.5 384.342 657.95 398.792 657.95 416.854V434.917H703.708C710.096 434.917 716.221 432.379 720.738 427.863C725.254 423.346 727.792 417.221 727.792 410.833V362.667H745.854C753.838 362.667 761.495 359.495 767.141 353.849C772.787 348.204 775.958 340.547 775.958 332.563C775.958 324.578 772.787 316.921 767.141 311.276C761.495 305.63 753.838 302.458 745.854 302.458Z" fill="#B3E4F6"/>
<path d="M882.854 37.5417H864.792V85.7083C864.792 92.0956 862.254 98.2213 857.738 102.738C853.221 107.254 847.096 109.792 840.708 109.792H792.542V127.854C792.542 135.838 789.37 143.495 783.724 149.141C778.079 154.787 770.422 157.958 762.438 157.958C754.453 157.958 746.796 154.787 741.151 149.141C735.505 143.495 732.333 135.838 732.333 127.854V109.792H684.167C677.779 109.792 671.654 107.254 667.137 102.738C662.621 98.2213 660.083 92.0956 660.083 85.7083V39.95H678.146C696.208 39.95 710.658 25.5 710.658 7.4375C710.658 -10.625 696.208 -25.075 678.146 -25.075H660.083V-70.8333C660.083 -77.2206 662.621 -83.3463 667.137 -87.8628C671.654 -92.3793 677.779 -94.9167 684.167 -94.9167H729.925V-76.8542C729.925 -58.7917 744.375 -44.3417 762.438 -44.3417C780.5 -44.3417 794.95 -58.7917 794.95 -76.8542V-94.9167H840.708C847.096 -94.9167 853.221 -92.3793 857.738 -87.8628C862.254 -83.3463 864.792 -77.2206 864.792 -70.8333V-22.6667H882.854C890.838 -22.6667 898.495 -19.495 904.141 -13.8493C909.787 -8.20374 912.958 -0.546616 912.958 7.4375C912.958 15.4216 909.787 23.0787 904.141 28.7244C898.495 34.37 890.838 37.5417 882.854 37.5417Z" fill="#B8EBFE"/>
<path d="M231.646 357.542H251.208V409.708C251.208 416.626 253.956 423.26 258.848 428.152C263.74 433.044 270.374 435.792 277.292 435.792H329.458V455.354C329.458 464.001 332.893 472.294 339.008 478.409C345.122 484.523 353.415 487.958 362.062 487.958C370.71 487.958 379.003 484.523 385.117 478.409C391.232 472.294 394.667 464.001 394.667 455.354V435.792H446.833C453.751 435.792 460.385 433.044 465.277 428.152C470.169 423.26 472.917 416.626 472.917 409.708V360.15H453.354C433.792 360.15 418.142 344.5 418.142 324.937C418.142 305.375 433.792 289.725 453.354 289.725H472.917V240.167C472.917 233.249 470.169 226.615 465.277 221.723C460.385 216.831 453.751 214.083 446.833 214.083H397.275V233.646C397.275 253.208 381.625 268.858 362.062 268.858C342.5 268.858 326.85 253.208 326.85 233.646V214.083H277.292C270.374 214.083 263.74 216.831 258.848 221.723C253.956 226.615 251.208 233.249 251.208 240.167V292.333H231.646C222.999 292.333 214.706 295.768 208.591 301.883C202.477 307.997 199.042 316.29 199.042 324.937C199.042 333.585 202.477 341.878 208.591 347.992C214.706 354.107 222.999 357.542 231.646 357.542Z" fill="#85D4F0"/>
<g clip-path="url(#clip1_14_410)">
<path d="M960.521 234.208H980.458V181.042C980.458 173.991 983.259 167.23 988.244 162.244C993.23 157.259 999.991 154.458 1007.04 154.458H1060.21V134.521C1060.21 125.708 1063.71 117.256 1069.94 111.024C1076.17 104.793 1084.62 101.292 1093.44 101.292C1102.25 101.292 1110.7 104.793 1116.93 111.024C1123.17 117.256 1126.67 125.708 1126.67 134.521V154.458H1179.83C1186.88 154.458 1193.65 157.259 1198.63 162.244C1203.62 167.23 1206.42 173.991 1206.42 181.042V231.55H1186.48C1166.54 231.55 1150.59 247.5 1150.59 267.438C1150.59 287.375 1166.54 303.325 1186.48 303.325H1206.42V353.833C1206.42 360.884 1203.62 367.645 1198.63 372.631C1193.65 377.616 1186.88 380.417 1179.83 380.417H1129.33V360.479C1129.33 340.542 1113.38 324.592 1093.44 324.592C1073.5 324.592 1057.55 340.542 1057.55 360.479V380.417H1007.04C999.991 380.417 993.23 377.616 988.244 372.631C983.259 367.645 980.458 360.884 980.458 353.833V300.667H960.521C951.708 300.667 943.256 297.166 937.024 290.934C930.793 284.702 927.292 276.25 927.292 267.438C927.292 258.625 930.793 250.173 937.024 243.941C943.256 237.709 951.708 234.208 960.521 234.208Z" fill="url(#paint1_linear_14_410)"/>
<path d="M1167.42 115.833H1155.17V83.1667C1155.17 78.8348 1153.45 74.6803 1150.38 71.6172C1147.32 68.5542 1143.17 66.8333 1138.83 66.8333H1106.17V54.5833C1106.17 49.1685 1104.02 43.9754 1100.19 40.1466C1096.36 36.3177 1091.16 34.1667 1085.75 34.1667C1080.34 34.1667 1075.14 36.3177 1071.31 40.1466C1067.48 43.9754 1065.33 49.1685 1065.33 54.5833V66.8333H1032.67C1028.33 66.8333 1024.18 68.5542 1021.12 71.6172C1018.05 74.6803 1016.33 78.8348 1016.33 83.1667V114.2H1028.58C1040.83 114.2 1050.63 124 1050.63 136.25C1050.63 148.5 1040.83 158.3 1028.58 158.3H1016.33V189.333C1016.33 193.665 1018.05 197.82 1021.12 200.883C1024.18 203.946 1028.33 205.667 1032.67 205.667H1063.7V193.417C1063.7 181.167 1073.5 171.367 1085.75 171.367C1098 171.367 1107.8 181.167 1107.8 193.417V205.667H1138.83C1143.17 205.667 1147.32 203.946 1150.38 200.883C1153.45 197.82 1155.17 193.665 1155.17 189.333V156.667H1167.42C1172.83 156.667 1178.02 154.516 1181.85 150.687C1185.68 146.858 1187.83 141.665 1187.83 136.25C1187.83 130.835 1185.68 125.642 1181.85 121.813C1178.02 117.984 1172.83 115.833 1167.42 115.833Z" fill="#ABE2F7"/>
</g>
<path d="M165.583 47.1667H183.833V95.8333C183.833 102.287 186.397 108.476 190.96 113.04C195.524 117.603 201.713 120.167 208.167 120.167H256.833V138.417C256.833 146.484 260.038 154.22 265.742 159.925C271.446 165.629 279.183 168.833 287.25 168.833C295.317 168.833 303.054 165.629 308.758 159.925C314.462 154.22 317.667 146.484 317.667 138.417V120.167H366.333C372.787 120.167 378.976 117.603 383.54 113.04C388.103 108.476 390.667 102.287 390.667 95.8333V49.6H372.417C354.167 49.6 339.567 35 339.567 16.75C339.567 -1.5 354.167 -16.1 372.417 -16.1H390.667V-62.3333C390.667 -68.7869 388.103 -74.9762 383.54 -79.5396C378.976 -84.103 372.787 -86.6667 366.333 -86.6667H320.1V-68.4167C320.1 -50.1667 305.5 -35.5667 287.25 -35.5667C269 -35.5667 254.4 -50.1667 254.4 -68.4167V-86.6667H208.167C201.713 -86.6667 195.524 -84.103 190.96 -79.5396C186.397 -74.9762 183.833 -68.7869 183.833 -62.3333V-13.6667H165.583C157.516 -13.6667 149.78 -10.4621 144.076 -4.75783C138.371 0.946411 135.167 8.683 135.167 16.75C135.167 24.817 138.371 32.5536 144.076 38.2578C149.78 43.9621 157.516 47.1667 165.583 47.1667Z" fill="#BCECFE"/>
<path d="M100.604 267.958H113.292V301.792C113.292 306.278 115.074 310.581 118.246 313.754C121.419 316.926 125.722 318.708 130.208 318.708H164.042V331.396C164.042 337.004 166.27 342.383 170.235 346.348C174.201 350.314 179.579 352.542 185.188 352.542C190.796 352.542 196.174 350.314 200.14 346.348C204.105 342.383 206.333 337.004 206.333 331.396V318.708H240.167C244.653 318.708 248.956 316.926 252.129 313.754C255.301 310.581 257.083 306.278 257.083 301.792V269.65H244.396C231.708 269.65 221.558 259.5 221.558 246.812C221.558 234.125 231.708 223.975 244.396 223.975H257.083V191.833C257.083 187.347 255.301 183.044 252.129 179.871C248.956 176.699 244.653 174.917 240.167 174.917H208.025V187.604C208.025 200.292 197.875 210.442 185.188 210.442C172.5 210.442 162.35 200.292 162.35 187.604V174.917H130.208C125.722 174.917 121.419 176.699 118.246 179.871C115.074 183.044 113.292 187.347 113.292 191.833V225.667H100.604C94.996 225.667 89.6174 227.895 85.6518 231.86C81.6862 235.826 79.4583 241.204 79.4583 246.812C79.4583 252.421 81.6862 257.799 85.6518 261.765C89.6174 265.73 94.996 267.958 100.604 267.958Z" fill="#A6E2F8"/>
</g>
<defs>
<linearGradient id="paint0_linear_14_410" x1="600" y1="0" x2="600" y2="256" gradientUnits="userSpaceOnUse">
<stop stop-color="#A6E0F4"/>
<stop offset="0.9999" stop-color="#BBECFE"/>
</linearGradient>
<linearGradient id="paint1_linear_14_410" x1="1066.85" y1="101.292" x2="1066.85" y2="380.417" gradientUnits="userSpaceOnUse">
<stop stop-color="#A5DFF4"/>
<stop offset="1" stop-color="#79C3DD"/>
</linearGradient>
<clipPath id="clip0_14_410">
<rect width="1200" height="256" rx="24" fill="white"/>
</clipPath>
<clipPath id="clip1_14_410">
<rect width="319" height="319" fill="white" transform="matrix(-1 0 0 1 1233 88)"/>
</clipPath>
</defs>
</svg>
