<svg width="194" height="36" viewBox="0 0 194 36" fill="none" xmlns="http://www.w3.org/2000/svg">
<path d="M50.6306 0.703125L35.0747 9.35883V26.3274L50.6306 34.9832L66.1865 26.3274V9.35883M50.6306 5.6523L59.0752 10.3444L50.6306 15.0365L42.2082 10.3444M15.0742 7.13063V11.4156H30.6301V7.13063M39.5192 13.7938L48.4083 18.743V28.7913L39.5192 23.8636M61.742 13.7938V23.8636L52.8529 28.7913V18.743M19.5188 15.7006V19.9856H30.6301V15.7006M23.9633 24.2706V28.5557H30.6301V24.2706" fill="#FF9800"/>
<path d="M92.7539 8.9375V26H89.8359V8.9375H92.7539ZM98.1094 8.9375V11.2812H84.5273V8.9375H98.1094ZM101.32 13.3203L103.734 17.5273L106.195 13.3203H109.301L105.457 19.543L109.453 26H106.348L103.77 21.6172L101.191 26H98.0742L102.059 19.543L98.2266 13.3203H101.32ZM117.996 19.6367H113.555V17.3047H117.996C118.77 17.3047 119.395 17.1797 119.871 16.9297C120.348 16.6797 120.695 16.3359 120.914 15.8984C121.141 15.4531 121.254 14.9453 121.254 14.375C121.254 13.8359 121.141 13.332 120.914 12.8633C120.695 12.3867 120.348 12.0039 119.871 11.7148C119.395 11.4258 118.77 11.2812 117.996 11.2812H114.457V26H111.516V8.9375H117.996C119.316 8.9375 120.438 9.17188 121.359 9.64062C122.289 10.1016 122.996 10.7422 123.48 11.5625C123.965 12.375 124.207 13.3047 124.207 14.3516C124.207 15.4531 123.965 16.3984 123.48 17.1875C122.996 17.9766 122.289 18.582 121.359 19.0039C120.438 19.4258 119.316 19.6367 117.996 19.6367ZM133.57 23.457V17.4102C133.57 16.957 133.488 16.5664 133.324 16.2383C133.16 15.9102 132.91 15.6562 132.574 15.4766C132.246 15.2969 131.832 15.207 131.332 15.207C130.871 15.207 130.473 15.2852 130.137 15.4414C129.801 15.5977 129.539 15.8086 129.352 16.0742C129.164 16.3398 129.07 16.6406 129.07 16.9766H126.258C126.258 16.4766 126.379 15.9922 126.621 15.5234C126.863 15.0547 127.215 14.6367 127.676 14.2695C128.137 13.9023 128.688 13.6133 129.328 13.4023C129.969 13.1914 130.688 13.0859 131.484 13.0859C132.438 13.0859 133.281 13.2461 134.016 13.5664C134.758 13.8867 135.34 14.3711 135.762 15.0195C136.191 15.6602 136.406 16.4648 136.406 17.4336V23.0703C136.406 23.6484 136.445 24.168 136.523 24.6289C136.609 25.082 136.73 25.4766 136.887 25.8125V26H133.992C133.859 25.6953 133.754 25.3086 133.676 24.8398C133.605 24.3633 133.57 23.9023 133.57 23.457ZM133.98 18.2891L134.004 20.0352H131.977C131.453 20.0352 130.992 20.0859 130.594 20.1875C130.195 20.2812 129.863 20.4219 129.598 20.6094C129.332 20.7969 129.133 21.0234 129 21.2891C128.867 21.5547 128.801 21.8555 128.801 22.1914C128.801 22.5273 128.879 22.8359 129.035 23.1172C129.191 23.3906 129.418 23.6055 129.715 23.7617C130.02 23.918 130.387 23.9961 130.816 23.9961C131.395 23.9961 131.898 23.8789 132.328 23.6445C132.766 23.4023 133.109 23.1094 133.359 22.7656C133.609 22.4141 133.742 22.082 133.758 21.7695L134.672 23.0234C134.578 23.3438 134.418 23.6875 134.191 24.0547C133.965 24.4219 133.668 24.7734 133.301 25.1094C132.941 25.4375 132.508 25.707 132 25.918C131.5 26.1289 130.922 26.2344 130.266 26.2344C129.438 26.2344 128.699 26.0703 128.051 25.7422C127.402 25.4062 126.895 24.957 126.527 24.3945C126.16 23.8242 125.977 23.1797 125.977 22.4609C125.977 21.7891 126.102 21.1953 126.352 20.6797C126.609 20.1562 126.984 19.7188 127.477 19.3672C127.977 19.0156 128.586 18.75 129.305 18.5703C130.023 18.3828 130.844 18.2891 131.766 18.2891H133.98ZM142.852 24.6172L146.297 13.3203H149.32L144.234 27.9336C144.117 28.2461 143.965 28.5859 143.777 28.9531C143.59 29.3203 143.344 29.668 143.039 29.9961C142.742 30.332 142.371 30.6016 141.926 30.8047C141.48 31.0156 140.941 31.1211 140.309 31.1211C140.059 31.1211 139.816 31.0977 139.582 31.0508C139.355 31.0117 139.141 30.9688 138.938 30.9219L138.926 28.7656C139.004 28.7734 139.098 28.7812 139.207 28.7891C139.324 28.7969 139.418 28.8008 139.488 28.8008C139.957 28.8008 140.348 28.7422 140.66 28.625C140.973 28.5156 141.227 28.3359 141.422 28.0859C141.625 27.8359 141.797 27.5 141.938 27.0781L142.852 24.6172ZM140.906 13.3203L143.918 22.8125L144.422 25.7891L142.465 26.293L137.859 13.3203H140.906Z" fill="#1F1F1F"/>
</svg>
