<svg width="194" height="36" viewBox="0 0 194 36" fill="none" xmlns="http://www.w3.org/2000/svg">
<path d="M50.6306 0.703125L35.0747 9.35883V26.3274L50.6306 34.9832L66.1865 26.3274V9.35883M50.6306 5.6523L59.0752 10.3444L50.6306 15.0365L42.2082 10.3444M15.0742 7.13063V11.4156H30.6301V7.13063M39.5192 13.7938L48.4083 18.743V28.7913L39.5192 23.8636M61.742 13.7938V23.8636L52.8529 28.7913V18.743M19.5188 15.7006V19.9856H30.6301V15.7006M23.9633 24.2706V28.5557H30.6301V24.2706" fill="#FF9800"/>
<path d="M95.8125 20.4453H98.7422C98.6484 21.5625 98.3359 22.5586 97.8047 23.4336C97.2734 24.3008 96.5273 24.9844 95.5664 25.4844C94.6055 25.9844 93.4375 26.2344 92.0625 26.2344C91.0078 26.2344 90.0586 26.0469 89.2148 25.6719C88.3711 25.2891 87.6484 24.75 87.0469 24.0547C86.4453 23.3516 85.9844 22.5039 85.6641 21.5117C85.3516 20.5195 85.1953 19.4102 85.1953 18.1836V16.7656C85.1953 15.5391 85.3555 14.4297 85.6758 13.4375C86.0039 12.4453 86.4727 11.5977 87.082 10.8945C87.6914 10.1836 88.4219 9.64062 89.2734 9.26562C90.1328 8.89062 91.0977 8.70312 92.168 8.70312C93.5273 8.70312 94.6758 8.95312 95.6133 9.45312C96.5508 9.95312 97.2773 10.6445 97.793 11.5273C98.3164 12.4102 98.6367 13.4219 98.7539 14.5625H95.8242C95.7461 13.8281 95.5742 13.1992 95.3086 12.6758C95.0508 12.1523 94.668 11.7539 94.1602 11.4805C93.6523 11.1992 92.9883 11.0586 92.168 11.0586C91.4961 11.0586 90.9102 11.1836 90.4102 11.4336C89.9102 11.6836 89.4922 12.0508 89.1562 12.5352C88.8203 13.0195 88.5664 13.6172 88.3945 14.3281C88.2305 15.0312 88.1484 15.8359 88.1484 16.7422V18.1836C88.1484 19.043 88.2227 19.8242 88.3711 20.5273C88.5273 21.2227 88.7617 21.8203 89.0742 22.3203C89.3945 22.8203 89.8008 23.207 90.293 23.4805C90.7852 23.7539 91.375 23.8906 92.0625 23.8906C92.8984 23.8906 93.5742 23.7578 94.0898 23.4922C94.6133 23.2266 95.0078 22.8398 95.2734 22.332C95.5469 21.8164 95.7266 21.1875 95.8125 20.4453ZM100.594 19.8008V19.5312C100.594 18.6172 100.727 17.7695 100.992 16.9883C101.258 16.1992 101.641 15.5156 102.141 14.9375C102.648 14.3516 103.266 13.8984 103.992 13.5781C104.727 13.25 105.555 13.0859 106.477 13.0859C107.406 13.0859 108.234 13.25 108.961 13.5781C109.695 13.8984 110.316 14.3516 110.824 14.9375C111.332 15.5156 111.719 16.1992 111.984 16.9883C112.25 17.7695 112.383 18.6172 112.383 19.5312V19.8008C112.383 20.7148 112.25 21.5625 111.984 22.3438C111.719 23.125 111.332 23.8086 110.824 24.3945C110.316 24.9727 109.699 25.4258 108.973 25.7539C108.246 26.0742 107.422 26.2344 106.5 26.2344C105.57 26.2344 104.738 26.0742 104.004 25.7539C103.277 25.4258 102.66 24.9727 102.152 24.3945C101.645 23.8086 101.258 23.125 100.992 22.3438C100.727 21.5625 100.594 20.7148 100.594 19.8008ZM103.418 19.5312V19.8008C103.418 20.3711 103.477 20.9102 103.594 21.418C103.711 21.9258 103.895 22.3711 104.145 22.7539C104.395 23.1367 104.715 23.4375 105.105 23.6562C105.496 23.875 105.961 23.9844 106.5 23.9844C107.023 23.9844 107.477 23.875 107.859 23.6562C108.25 23.4375 108.57 23.1367 108.82 22.7539C109.07 22.3711 109.254 21.9258 109.371 21.418C109.496 20.9102 109.559 20.3711 109.559 19.8008V19.5312C109.559 18.9688 109.496 18.4375 109.371 17.9375C109.254 17.4297 109.066 16.9805 108.809 16.5898C108.559 16.1992 108.238 15.8945 107.848 15.6758C107.465 15.4492 107.008 15.3359 106.477 15.3359C105.945 15.3359 105.484 15.4492 105.094 15.6758C104.711 15.8945 104.395 16.1992 104.145 16.5898C103.895 16.9805 103.711 17.4297 103.594 17.9375C103.477 18.4375 103.418 18.9688 103.418 19.5312ZM122.484 23.375V8H125.32V26H122.754L122.484 23.375ZM114.234 19.8008V19.5547C114.234 18.5938 114.348 17.7188 114.574 16.9297C114.801 16.1328 115.129 15.4492 115.559 14.8789C115.988 14.3008 116.512 13.8594 117.129 13.5547C117.746 13.2422 118.441 13.0859 119.215 13.0859C119.98 13.0859 120.652 13.2344 121.23 13.5312C121.809 13.8281 122.301 14.2539 122.707 14.8086C123.113 15.3555 123.438 16.0117 123.68 16.7773C123.922 17.5352 124.094 18.3789 124.195 19.3086V20.0938C124.094 21 123.922 21.8281 123.68 22.5781C123.438 23.3281 123.113 23.9766 122.707 24.5234C122.301 25.0703 121.805 25.4922 121.219 25.7891C120.641 26.0859 119.965 26.2344 119.191 26.2344C118.426 26.2344 117.734 26.0742 117.117 25.7539C116.508 25.4336 115.988 24.9844 115.559 24.4062C115.129 23.8281 114.801 23.1484 114.574 22.3672C114.348 21.5781 114.234 20.7227 114.234 19.8008ZM117.059 19.5547V19.8008C117.059 20.3789 117.109 20.918 117.211 21.418C117.32 21.918 117.488 22.3594 117.715 22.7422C117.941 23.1172 118.234 23.4141 118.594 23.6328C118.961 23.8438 119.398 23.9492 119.906 23.9492C120.547 23.9492 121.074 23.8086 121.488 23.5273C121.902 23.2461 122.227 22.8672 122.461 22.3906C122.703 21.9062 122.867 21.3672 122.953 20.7734V18.6523C122.906 18.1914 122.809 17.7617 122.66 17.3633C122.52 16.9648 122.328 16.6172 122.086 16.3203C121.844 16.0156 121.543 15.7812 121.184 15.6172C120.832 15.4453 120.414 15.3594 119.93 15.3594C119.414 15.3594 118.977 15.4688 118.617 15.6875C118.258 15.9062 117.961 16.207 117.727 16.5898C117.5 16.9727 117.332 17.418 117.223 17.9258C117.113 18.4336 117.059 18.9766 117.059 19.5547ZM133.863 26.2344C132.926 26.2344 132.078 26.082 131.32 25.7773C130.57 25.4648 129.93 25.0312 129.398 24.4766C128.875 23.9219 128.473 23.2695 128.191 22.5195C127.91 21.7695 127.77 20.9609 127.77 20.0938V19.625C127.77 18.6328 127.914 17.7344 128.203 16.9297C128.492 16.125 128.895 15.4375 129.41 14.8672C129.926 14.2891 130.535 13.8477 131.238 13.543C131.941 13.2383 132.703 13.0859 133.523 13.0859C134.43 13.0859 135.223 13.2383 135.902 13.543C136.582 13.8477 137.145 14.2773 137.59 14.832C138.043 15.3789 138.379 16.0312 138.598 16.7891C138.824 17.5469 138.938 18.3828 138.938 19.2969V20.5039H129.141V18.4766H136.148V18.2539C136.133 17.7461 136.031 17.2695 135.844 16.8242C135.664 16.3789 135.387 16.0195 135.012 15.7461C134.637 15.4727 134.137 15.3359 133.512 15.3359C133.043 15.3359 132.625 15.4375 132.258 15.6406C131.898 15.8359 131.598 16.1211 131.355 16.4961C131.113 16.8711 130.926 17.3242 130.793 17.8555C130.668 18.3789 130.605 18.9688 130.605 19.625V20.0938C130.605 20.6484 130.68 21.1641 130.828 21.6406C130.984 22.1094 131.211 22.5195 131.508 22.8711C131.805 23.2227 132.164 23.5 132.586 23.7031C133.008 23.8984 133.488 23.9961 134.027 23.9961C134.707 23.9961 135.312 23.8594 135.844 23.5859C136.375 23.3125 136.836 22.9258 137.227 22.4258L138.715 23.8672C138.441 24.2656 138.086 24.6484 137.648 25.0156C137.211 25.375 136.676 25.668 136.043 25.8945C135.418 26.1211 134.691 26.2344 133.863 26.2344ZM151.5 20.4453H154.43C154.336 21.5625 154.023 22.5586 153.492 23.4336C152.961 24.3008 152.215 24.9844 151.254 25.4844C150.293 25.9844 149.125 26.2344 147.75 26.2344C146.695 26.2344 145.746 26.0469 144.902 25.6719C144.059 25.2891 143.336 24.75 142.734 24.0547C142.133 23.3516 141.672 22.5039 141.352 21.5117C141.039 20.5195 140.883 19.4102 140.883 18.1836V16.7656C140.883 15.5391 141.043 14.4297 141.363 13.4375C141.691 12.4453 142.16 11.5977 142.77 10.8945C143.379 10.1836 144.109 9.64062 144.961 9.26562C145.82 8.89062 146.785 8.70312 147.855 8.70312C149.215 8.70312 150.363 8.95312 151.301 9.45312C152.238 9.95312 152.965 10.6445 153.48 11.5273C154.004 12.4102 154.324 13.4219 154.441 14.5625H151.512C151.434 13.8281 151.262 13.1992 150.996 12.6758C150.738 12.1523 150.355 11.7539 149.848 11.4805C149.34 11.1992 148.676 11.0586 147.855 11.0586C147.184 11.0586 146.598 11.1836 146.098 11.4336C145.598 11.6836 145.18 12.0508 144.844 12.5352C144.508 13.0195 144.254 13.6172 144.082 14.3281C143.918 15.0312 143.836 15.8359 143.836 16.7422V18.1836C143.836 19.043 143.91 19.8242 144.059 20.5273C144.215 21.2227 144.449 21.8203 144.762 22.3203C145.082 22.8203 145.488 23.207 145.98 23.4805C146.473 23.7539 147.062 23.8906 147.75 23.8906C148.586 23.8906 149.262 23.7578 149.777 23.4922C150.301 23.2266 150.695 22.8398 150.961 22.332C151.234 21.8164 151.414 21.1875 151.5 20.4453ZM159.656 15.7344V26H156.832V13.3203H159.527L159.656 15.7344ZM163.535 13.2383L163.512 15.8633C163.34 15.832 163.152 15.8086 162.949 15.793C162.754 15.7773 162.559 15.7695 162.363 15.7695C161.879 15.7695 161.453 15.8398 161.086 15.9805C160.719 16.1133 160.41 16.3086 160.16 16.5664C159.918 16.8164 159.73 17.1211 159.598 17.4805C159.465 17.8398 159.387 18.2422 159.363 18.6875L158.719 18.7344C158.719 17.9375 158.797 17.1992 158.953 16.5195C159.109 15.8398 159.344 15.2422 159.656 14.7266C159.977 14.2109 160.375 13.8086 160.852 13.5195C161.336 13.2305 161.895 13.0859 162.527 13.0859C162.699 13.0859 162.883 13.1016 163.078 13.1328C163.281 13.1641 163.434 13.1992 163.535 13.2383ZM170.66 26.2344C169.723 26.2344 168.875 26.082 168.117 25.7773C167.367 25.4648 166.727 25.0312 166.195 24.4766C165.672 23.9219 165.27 23.2695 164.988 22.5195C164.707 21.7695 164.566 20.9609 164.566 20.0938V19.625C164.566 18.6328 164.711 17.7344 165 16.9297C165.289 16.125 165.691 15.4375 166.207 14.8672C166.723 14.2891 167.332 13.8477 168.035 13.543C168.738 13.2383 169.5 13.0859 170.32 13.0859C171.227 13.0859 172.02 13.2383 172.699 13.543C173.379 13.8477 173.941 14.2773 174.387 14.832C174.84 15.3789 175.176 16.0312 175.395 16.7891C175.621 17.5469 175.734 18.3828 175.734 19.2969V20.5039H165.938V18.4766H172.945V18.2539C172.93 17.7461 172.828 17.2695 172.641 16.8242C172.461 16.3789 172.184 16.0195 171.809 15.7461C171.434 15.4727 170.934 15.3359 170.309 15.3359C169.84 15.3359 169.422 15.4375 169.055 15.6406C168.695 15.8359 168.395 16.1211 168.152 16.4961C167.91 16.8711 167.723 17.3242 167.59 17.8555C167.465 18.3789 167.402 18.9688 167.402 19.625V20.0938C167.402 20.6484 167.477 21.1641 167.625 21.6406C167.781 22.1094 168.008 22.5195 168.305 22.8711C168.602 23.2227 168.961 23.5 169.383 23.7031C169.805 23.8984 170.285 23.9961 170.824 23.9961C171.504 23.9961 172.109 23.8594 172.641 23.5859C173.172 23.3125 173.633 22.9258 174.023 22.4258L175.512 23.8672C175.238 24.2656 174.883 24.6484 174.445 25.0156C174.008 25.375 173.473 25.668 172.84 25.8945C172.215 26.1211 171.488 26.2344 170.66 26.2344ZM185.672 23.375V8H188.508V26H185.941L185.672 23.375ZM177.422 19.8008V19.5547C177.422 18.5938 177.535 17.7188 177.762 16.9297C177.988 16.1328 178.316 15.4492 178.746 14.8789C179.176 14.3008 179.699 13.8594 180.316 13.5547C180.934 13.2422 181.629 13.0859 182.402 13.0859C183.168 13.0859 183.84 13.2344 184.418 13.5312C184.996 13.8281 185.488 14.2539 185.895 14.8086C186.301 15.3555 186.625 16.0117 186.867 16.7773C187.109 17.5352 187.281 18.3789 187.383 19.3086V20.0938C187.281 21 187.109 21.8281 186.867 22.5781C186.625 23.3281 186.301 23.9766 185.895 24.5234C185.488 25.0703 184.992 25.4922 184.406 25.7891C183.828 26.0859 183.152 26.2344 182.379 26.2344C181.613 26.2344 180.922 26.0742 180.305 25.7539C179.695 25.4336 179.176 24.9844 178.746 24.4062C178.316 23.8281 177.988 23.1484 177.762 22.3672C177.535 21.5781 177.422 20.7227 177.422 19.8008ZM180.246 19.5547V19.8008C180.246 20.3789 180.297 20.918 180.398 21.418C180.508 21.918 180.676 22.3594 180.902 22.7422C181.129 23.1172 181.422 23.4141 181.781 23.6328C182.148 23.8438 182.586 23.9492 183.094 23.9492C183.734 23.9492 184.262 23.8086 184.676 23.5273C185.09 23.2461 185.414 22.8672 185.648 22.3906C185.891 21.9062 186.055 21.3672 186.141 20.7734V18.6523C186.094 18.1914 185.996 17.7617 185.848 17.3633C185.707 16.9648 185.516 16.6172 185.273 16.3203C185.031 16.0156 184.73 15.7812 184.371 15.6172C184.02 15.4453 183.602 15.3594 183.117 15.3594C182.602 15.3594 182.164 15.4688 181.805 15.6875C181.445 15.9062 181.148 16.207 180.914 16.5898C180.688 16.9727 180.52 17.418 180.41 17.9258C180.301 18.4336 180.246 18.9766 180.246 19.5547Z" fill="#1F1F1F"/>
</svg>
